<svg id="Layer_1" data-name="Layer 1" xmlns="http://www.w3.org/2000/svg" viewBox="0 0 128 128"><title>RULERS</title><path d="M15.479,23.2a1.75,1.75,0,0,0-2.987,1.237V115a1.75,1.75,0,0,0,1.75,1.75H104.8a1.75,1.75,0,0,0,1.237-2.987Zm71.06,90.051v-6.3a1.75,1.75,0,0,0-3.5,0v6.3h-6.63v-3.861a1.75,1.75,0,0,0-3.5,0v3.861h-6.63v-6.3a1.75,1.75,0,0,0-3.5,0v6.3h-6.63v-3.861a1.75,1.75,0,0,0-3.5,0v3.861h-6.63v-6.3a1.75,1.75,0,1,0-3.5,0v6.3h-6.63v-3.861a1.75,1.75,0,0,0-3.5,0v3.861h-6.63v-6.3a1.75,1.75,0,0,0-3.5,0v6.3H15.992V28.661L100.58,113.25Z"/><path d="M29.2,101.789H68.685A1.75,1.75,0,0,0,69.922,98.8L30.44,59.319a1.75,1.75,0,0,0-2.987,1.237v39.482A1.75,1.75,0,0,0,29.2,101.789Zm1.75-37.007L64.46,98.289H30.953Z"/><path d="M115,78.261l-66.5-66.5a1.749,1.749,0,0,0-2.475,0l-11.7,11.7a1.749,1.749,0,0,0,0,2.475l66.5,66.5a1.749,1.749,0,0,0,2.475,0l11.7-11.7A1.749,1.749,0,0,0,115,78.261ZM102.058,88.724l-7.009-7.009,5.06-5.06a1.75,1.75,0,1,0-2.475-2.475l-5.06,5.06-5.447-5.447,3.15-3.15A1.75,1.75,0,0,0,87.8,68.168l-3.15,3.15-5.447-5.447,5.06-5.06a1.75,1.75,0,0,0-2.475-2.475l-5.06,5.06-5.447-5.447,3.15-3.15a1.75,1.75,0,0,0-2.475-2.475l-3.15,3.15-5.447-5.447,5.059-5.06a1.75,1.75,0,0,0-2.475-2.475l-5.059,5.06L55.44,42.106l3.15-3.15a1.75,1.75,0,0,0-2.475-2.475l-3.15,3.15-5.447-5.447,5.059-5.06A1.75,1.75,0,0,0,50.1,26.649l-5.059,5.06L38.035,24.7l9.225-9.225L111.283,79.5Z"/></svg>